<svg width="1027" height="857" viewBox="0 0 1027 857" fill="none" xmlns="http://www.w3.org/2000/svg">
<path fill-rule="evenodd" clip-rule="evenodd" d="M834.225 284.334C833.692 283.946 832.426 283.809 831.838 283.692C829.39 283.21 826.869 283 824.374 283C816.681 283.012 808.863 283.767 801.298 285.074C796.494 285.903 790.687 288.696 785.909 287.179C777.585 284.537 769.172 284.667 761.274 288.439C754.053 291.888 748.572 298.439 745.373 305.517C744.89 306.586 742.932 310.519 742.378 313.17C742.141 313.712 741.913 314.257 741.708 314.811C741.126 316.384 740.603 317.984 740.118 319.588C739.91 320.272 739.389 321.782 740.008 322.074C739.019 323.901 738.141 325.783 737.411 327.726C735.286 333.378 732.962 339.578 732.215 345.568C731.939 347.786 731.928 350.017 732.185 352.239C732.312 353.338 732.26 355.546 733.004 356.382C734.585 358.154 735.396 355.673 735.218 354.491C733.858 345.485 736.485 337.027 739.598 328.561C741.612 323.087 744.92 318.078 748.626 313.543C751.625 309.871 754.842 306.98 758.953 304.546C763.981 301.569 769.356 299.163 774.681 296.749C778.184 295.161 781.691 293.615 785.291 292.247C786.092 291.942 787.351 291.161 788.239 291.158C790.116 291.152 792.777 292.537 794.59 293.052C800.554 294.748 806.594 296.919 812.758 297.785C816.712 298.341 820.416 297.715 824.113 296.398C824.491 296.264 825.125 295.918 825.901 295.424C828.646 294.368 831.243 293.039 833.504 291.121C834.806 290.017 835.989 288.589 837.067 287.282C837.389 286.892 837.532 286.444 837.537 286.018C837.781 285.891 837.943 285.741 837.98 285.567C838.249 284.281 835.796 284.258 834.225 284.334" fill="#89C5CC"/>
<path fill-rule="evenodd" clip-rule="evenodd" d="M209.273 391.541C207.764 392.763 206.284 394.011 204.84 395.31C203.739 396.3 201.791 397.485 201.396 398.985C200.985 400.544 202.282 402.003 203.306 402.945C208.723 407.929 214.823 411.298 222.329 411.859C233.887 412.722 243.946 409.77 253.974 403.963C261.018 399.883 265.684 393.849 266.703 385.701C275.092 389.187 283.205 393.993 290.1 399.891C293.502 402.801 296.432 406.025 299.142 409.599C300.878 411.889 302.557 414.215 304.115 416.631C304.792 417.68 305.481 419.542 306.599 420.146C307.912 420.856 309.499 419.743 309.434 418.284C309.379 417.069 308.068 415.66 307.454 414.667C306.436 413.018 305.402 411.379 304.313 409.776C302.551 407.179 300.73 404.62 298.744 402.19C294.28 396.73 288.601 392.221 282.714 388.375C271.42 380.997 259.025 376.349 245.283 375.955C236.833 375.713 229.725 378.6 222.499 382.911C218 385.595 213.356 388.235 209.273 391.541" fill="#DDE3E9"/>
<path fill-rule="evenodd" clip-rule="evenodd" d="M318.883 355.855C310.077 346.787 301.241 337.832 291.403 329.846C285.605 325.141 279.495 320.862 273.511 316.401C274.201 317.006 274.878 317.628 275.539 318.266C273.671 316.998 271.226 316.281 269.246 315.107C267.037 313.798 264.925 312.3 262.854 310.791C258.811 307.845 254.829 304.843 250.673 302.051C246.043 298.94 241.245 296.066 236.536 293.072C232.539 290.532 228.494 287.751 224.218 285.674C221.888 284.542 219.553 283.201 217.213 282.02C216.43 281.625 208.484 276.608 208.504 276.592C208.943 276.262 212.942 278.14 213.56 278.393C215.366 279.131 217.094 280.013 218.83 280.893C217.877 279.013 217.123 277.037 216.712 274.958C216.585 274.316 215.569 269.644 216.089 269.252C216.348 269.056 218.883 277.416 219.013 278.219C219.119 278.872 219.103 279.812 219.317 280.43C219.662 281.429 219.645 281.127 220.405 281.69C221.798 282.721 223.647 283.365 225.154 284.226C225.968 284.68 228.485 286.48 230.001 286.993C234.588 289.221 239.238 292.649 243.597 295.495C242.453 293.345 241.582 291.097 240.948 288.741C240.797 288.182 239.167 283.165 239.563 282.867C240.008 282.531 243.112 290.195 243.296 290.92C243.637 292.268 243.708 293.767 244.136 295.079C244.605 296.518 246.07 297.028 247.39 297.867C252.247 300.953 256.938 304.232 261.55 307.662C266.583 298.711 260.78 287.903 255.89 280.393C252.364 274.98 247.619 270.34 242.608 266.289C235.92 260.882 228.269 256.563 220.627 252.612C211.723 248.009 202.099 245.156 192.093 243.839C186.86 243.149 181.507 243.169 176.221 243.39C173.639 243.497 171.16 243.839 168.686 244.682C167.57 245.062 166.492 245.541 165.442 246.077C164.644 246.484 162.713 246.914 162.255 247.521C158.477 252.438 156.545 257.337 156.84 263.515C157.119 269.363 158.966 275.214 161.472 280.431C164.264 286.239 167.854 291.511 172.55 295.936C176.132 299.312 180.137 302.25 184.116 305.15C198.267 315.463 216.208 324.433 234.536 322.128C240.469 321.383 246.112 319.308 251.385 316.488C252.628 315.824 253.863 315.152 255.036 314.368C255.827 313.839 257.941 311.456 258.736 311.369C259.827 311.251 262.175 313.468 263.198 314.143C270.972 319.275 278.542 324.685 285.953 330.313C293.839 336.301 301.337 342.697 308.615 349.393C311.71 352.242 314.786 355.096 317.791 358.04C318.491 358.725 320.202 361.247 321.471 361.361C322.273 361.434 322.814 360.748 322.7 360.006C322.501 358.715 319.785 356.784 318.883 355.855" fill="#C1DEE2"/>
<path fill-rule="evenodd" clip-rule="evenodd" d="M824.98 320.66C821.57 319.915 817.803 319.972 814.329 320.033C795.695 320.287 777.397 329.109 765.489 343.205C755.351 355.205 752.563 370.125 750.56 385.207C750.362 386.704 750.277 388.192 750.165 389.693C750.141 390.015 750.105 390.302 750.066 390.573C749.279 391.277 748.865 392.098 749.332 393C747.597 396.797 746.129 400.69 744.869 404.706C741.162 416.526 737.392 428.571 739.714 441C740.257 434.16 741.399 427.166 742.764 420.438C742.842 420.052 742.927 419.669 743.015 419.287C743.025 419.247 743.033 419.206 743.042 419.166C743.525 417.106 744.153 415.108 744.917 413.141C744.925 413.119 744.933 413.098 744.941 413.077C745.042 412.818 745.149 412.56 745.255 412.303C745.474 411.77 745.699 411.238 745.937 410.709C746.018 410.528 746.095 410.346 746.17 410.163C747.282 407.437 747.751 404.365 748.748 401.545C748.986 400.904 749.235 400.265 749.496 399.629C749.512 399.592 749.527 399.555 749.543 399.518C750.249 397.807 751.028 396.118 751.853 394.446C752.301 394.11 752.54 393.274 752.927 392.515C753.006 392.365 753.631 391.368 753.817 390.793C754.303 389.854 754.786 388.915 755.275 387.977C755.261 387.983 755.246 387.988 755.231 387.994C755.72 387.093 756.211 386.197 756.698 385.304C756.805 385.108 756.913 384.912 757.021 384.715C757.196 384.402 757.371 384.089 757.545 383.777C759.177 380.856 760.908 377.994 762.705 375.167C763.347 374.158 764.879 372.711 765.173 371.579C765.184 371.536 765.186 371.497 765.193 371.457C769.093 365.979 773.582 360.927 778.967 356.924C778.316 357.628 776.932 360.015 776.567 360.488C775.447 361.935 774.232 363.282 773.013 364.646C770.828 367.089 768.696 369.609 766.801 372.274C763.335 377.148 760.346 382.277 757.519 387.51C757.493 387.54 757.463 387.569 757.438 387.601C756.017 389.352 755.123 391.998 754.101 394.001C758.147 392.127 762.622 390.906 766.774 389.242C770.916 387.583 774.944 385.735 778.834 383.566C784.003 380.682 789.366 377.427 794.25 373.743C799.847 370.271 804.551 365.492 808.703 360.477C813.615 354.543 818.117 348.558 820.901 341.353C822.269 337.813 823.345 334.121 823.983 330.386C824.011 330.224 824.046 330.047 824.085 329.864C824.738 328.574 825.321 327.255 825.811 325.906C826.588 323.766 828.425 321.412 824.98 320.66" fill="#69A1AC"/>
<path fill-rule="evenodd" clip-rule="evenodd" d="M142.959 323.554C141.476 322.096 139.81 320.78 137.855 319.842C137.361 319.605 133.678 318.016 133.438 318.364C132.879 319.176 142.514 323.088 142.959 323.554M160.42 313.813C160.408 313.875 161.685 315.843 162.032 316.448C162.772 317.734 163.456 319.045 164.098 320.359C163.147 318.038 162.169 315.886 160.42 313.813M71.12 329.83C69.8901 330.19 68.4114 328.772 70.0067 328.423C71.2975 328.143 71.2342 328.077 71.8137 327.133C72.2844 326.366 72.5743 325.431 72.9873 324.626C73.8633 322.92 74.857 321.292 76.0767 319.767C78.6908 316.498 81.8759 313.681 85.4481 311.307C91.6824 307.165 98.6725 303.379 106.087 301.477C117.877 298.452 131.296 298.265 143.104 300.362C150.417 301.661 157.101 303.918 161.957 309.266C164.384 311.938 166.289 315.069 167.122 318.516C167.34 319.417 167.299 320.419 167.571 321.301C167.989 322.658 167.805 322.296 169.552 322.56C171.459 322.848 173.365 323.143 175.271 323.442C180.26 324.225 185.278 325.057 190.139 326.329C191.739 326.747 193.304 327.259 194.833 327.853C195.989 328.302 200.592 329.712 201.152 331.076C202.083 333.345 198.963 332.316 197.993 331.822C197.144 331.389 196.272 330.985 195.388 330.613C193.16 329.677 190.84 328.953 188.467 328.377C185.903 327.754 183.286 327.289 180.679 326.824C178.248 326.39 175.808 325.995 173.365 325.618C172.008 325.408 170.649 325.204 169.291 325.001C168.827 324.931 168.008 324.566 168.07 325.114C165.214 324.614 162.126 324.686 159.217 324.548C155.654 324.38 152.078 324.241 148.503 324.342C145.924 324.415 143.344 324.569 140.778 324.884C139.279 325.068 137.804 325.337 136.334 325.677C135.526 325.864 132.34 326.261 131.9 326.901C132.089 326.626 135.605 326.892 136.052 326.877C137.842 326.816 139.618 326.655 141.402 326.474C144.711 326.138 148.022 325.963 151.341 325.988C151.328 326.517 149.061 327.46 148.507 327.811C147.266 328.597 146.078 329.455 144.969 330.396C143.015 332.054 140.676 334.107 139.324 336.071C139.723 335.492 141.687 334.739 142.385 334.297C143.501 333.588 144.596 332.832 145.631 332.024C146.587 331.278 147.479 330.472 148.356 329.649C149.233 328.825 150.423 327.113 151.575 326.564C151.645 326.531 152.147 326.892 152.432 326.769C152.72 326.646 153.078 326.029 153.151 326.003C154.224 325.627 156.261 326.095 157.389 326.142C160.314 326.265 163.235 326.425 166.158 326.571C167.064 326.616 167.833 326.429 168.175 327.036C168.539 327.682 167.872 329.383 167.682 330.087C166.977 332.704 165.725 335.05 163.755 337.077C160.066 340.874 155.516 343.405 150.377 345.098C130.691 351.584 109.748 354.181 90.0682 347.435C81.9208 344.642 69.6508 339.651 71.12 329.83" fill="#89C5CC"/>
<g opacity="0.6" clip-path="url(#clip0_0_1)">
<path fill-rule="evenodd" clip-rule="evenodd" d="M972.725 635.38C986.121 717.708 661.245 771.407 381.617 733.931C101.989 696.456 -26.2911 550.11 107.143 472.131C240.577 394.153 959.329 553.053 972.725 635.38Z" fill="#DDE3E9"/>
</g>
<g clip-path="url(#clip1_0_1)">
<rect x="282" y="165" width="159" height="302" rx="8" fill="#F2F2F2"/>
<circle cx="361" cy="433" r="15" fill="white"/>
<circle cx="348" cy="183" r="2" fill="white"/>
<rect x="355" y="181" width="21" height="4" rx="2" fill="white"/>
<g clip-path="url(#clip2_0_1)">
<g clip-path="url(#clip3_0_1)">
<rect x="296" y="193" width="131" height="54" rx="4" fill="white"/>
<g clip-path="url(#clip4_0_1)">
<rect x="335" y="209.2" width="73" height="8.1" rx="3" fill="#DDE3E9"/>
<rect x="335" y="222.7" width="49" height="8.1" rx="3" fill="#DDE3E9"/>
</g>
<circle cx="317" cy="220" r="12" fill="#C5CFD6"/>
</g>
<g clip-path="url(#clip5_0_1)">
<rect x="296" y="255" width="131" height="42" rx="4" fill="white"/>
<g clip-path="url(#clip6_0_1)">
<rect x="335" y="267.6" width="73" height="6.3" rx="3" fill="#DDE3E9"/>
<rect x="335" y="278.1" width="49" height="6.3" rx="3" fill="#DDE3E9"/>
</g>
<circle cx="317" cy="276" r="12" fill="#C5CFD6"/>
</g>
<g clip-path="url(#clip7_0_1)">
<rect x="296" y="305" width="131" height="42" rx="4" fill="white"/>
<g clip-path="url(#clip8_0_1)">
<rect x="335" y="317.6" width="73" height="6.3" rx="3" fill="#DDE3E9"/>
<rect x="335" y="328.1" width="49" height="6.3" rx="3" fill="#DDE3E9"/>
</g>
<circle cx="317" cy="326" r="12" fill="#AFB9C5"/>
</g>
<g clip-path="url(#clip9_0_1)">
<rect x="296" y="355" width="131" height="42" rx="4" fill="white"/>
<g clip-path="url(#clip10_0_1)">
<rect x="335" y="367.6" width="73" height="6.3" rx="3" fill="#DDE3E9"/>
<rect x="335" y="378.1" width="49" height="6.3" rx="3" fill="#DDE3E9"/>
</g>
<circle cx="317" cy="376" r="12" fill="#C5CFD6"/>
</g>
</g>
</g>
<g clip-path="url(#clip11_0_1)">
<path fill-rule="evenodd" clip-rule="evenodd" d="M312.14 409C310.815 409 309.494 409.027 308.171 409.095C307.162 409.148 305.621 408.939 304.768 409.568C303.881 410.221 303.942 411.557 304.081 412.501C304.813 417.493 306.6 421.919 310.339 425.456C316.096 430.901 322.695 433.668 330.504 434.9C335.99 435.766 341.054 434.564 345.092 430.663C348.043 436.139 350.281 442.199 351.404 448.315C351.958 451.333 352.127 454.315 352.03 457.388C351.967 459.356 351.859 461.32 351.648 463.279C351.556 464.13 351.122 465.418 351.455 466.223C351.846 467.167 353.165 467.259 353.757 466.453C354.25 465.783 354.16 464.466 354.261 463.673C354.429 462.355 354.584 461.036 354.695 459.712C354.876 457.569 355.009 455.42 355 453.268C354.977 448.435 353.902 443.583 352.432 438.995C349.612 430.192 345.037 422.369 337.921 416.231C333.545 412.457 328.537 410.929 322.856 410.108C319.318 409.597 315.723 409 312.14 409" fill="#89C5CC"/>
<path fill-rule="evenodd" clip-rule="evenodd" d="M332.571 444C318.272 444 308.642 455.524 304.089 467.502C302.372 472.016 301.97 476.974 301.308 481.714C301.096 483.236 301.175 485.554 300.557 486.909C300.333 487.401 299.819 487.577 300.065 488.247C300.214 488.652 300.505 488.901 300.944 488.981C301.843 489.147 303.115 488.167 303.886 487.781C310.282 484.573 314.484 479.613 317.912 473.545C320.038 469.784 322.194 465.879 323.456 461.75C324.227 459.227 324.676 456.571 324.94 453.954C325.044 452.923 325.144 451.868 325.138 450.832C325.132 449.803 324.653 449.259 324.309 448.364C329.08 446.558 334.466 446.066 339.299 447.937C343.769 449.668 347.482 453.013 349.561 457.216C350.101 458.308 350.518 459.46 350.821 460.636C351.02 461.406 351.029 462.404 351.398 463.1C352.29 464.788 354.168 463.66 353.988 462.089C353.485 457.708 350.979 453.309 347.775 450.263C343.734 446.421 338.258 444 332.571 444" fill="#89C5CC"/>
<rect x="348" y="191" width="159" height="302" rx="8" fill="#DDE3E9"/>
<circle cx="427" cy="459" r="15" fill="white"/>
<circle cx="414" cy="209" r="2" fill="white"/>
<rect x="421" y="207" width="21" height="4" rx="2" fill="white"/>
<g clip-path="url(#clip12_0_1)">
<g clip-path="url(#clip13_0_1)">
<rect x="362" y="219" width="131" height="54" rx="4" fill="white"/>
<g clip-path="url(#clip14_0_1)">
<rect x="371" y="235.2" width="73" height="8.1" rx="3" fill="#DDE3E9"/>
<rect x="371" y="248.7" width="49" height="8.1" rx="3" fill="#DDE3E9"/>
</g>
<circle cx="479" cy="246" r="7" fill="#DDE3E9"/>
<circle cx="479" cy="246" r="3" fill="#F2F2F2"/>
</g>
<g clip-path="url(#clip15_0_1)">
<rect x="362" y="281" width="131" height="42" rx="4" fill="white"/>
<g clip-path="url(#clip16_0_1)">
<rect x="401" y="293.6" width="73" height="6.3" rx="3" fill="#DDE3E9"/>
<rect x="401" y="304.1" width="49" height="6.3" rx="3" fill="#DDE3E9"/>
</g>
<circle cx="383" cy="302" r="12" fill="#C5CFD6"/>
</g>
<g clip-path="url(#clip17_0_1)">
<rect x="362" y="331" width="131" height="42" rx="4" fill="white"/>
<g clip-path="url(#clip18_0_1)">
<rect x="371" y="343.6" width="73" height="6.3" rx="3" fill="#DDE3E9"/>
<rect x="371" y="354.1" width="49" height="6.3" rx="3" fill="#AFB9C5"/>
</g>
<circle cx="479" cy="352" r="7" fill="#DDE3E9"/>
<circle cx="479" cy="352" r="3" fill="#F2F2F2"/>
</g>
<g clip-path="url(#clip19_0_1)">
<rect x="362" y="381" width="131" height="42" rx="4" fill="white"/>
<g clip-path="url(#clip20_0_1)">
<rect x="401" y="393.6" width="73" height="6.3" rx="3" fill="#DDE3E9"/>
<rect x="401" y="404.1" width="49" height="6.3" rx="3" fill="#DDE3E9"/>
</g>
<circle cx="383" cy="402" r="12" fill="#C5CFD6"/>
</g>
</g>
</g>
<g clip-path="url(#clip21_0_1)">
<rect x="414" y="216" width="335" height="346" rx="8" fill="#F2F2F2"/>
<rect x="663" y="259" width="70" height="81" rx="8" fill="white"/>
<circle cx="698" cy="290" r="16" fill="#DDE3E9"/>
<rect x="673" y="310" width="50" height="6" rx="3" fill="#DDE3E9"/>
<rect x="681" y="320" width="34" height="6" rx="3" fill="#DDE3E9"/>
<path d="M414 224C414 219.582 417.582 216 422 216H741C745.418 216 749 219.582 749 224V243H414V224Z" fill="#C5CFD6"/>
<circle cx="427" cy="230" r="4" fill="#F2F2F2"/>
<circle cx="439" cy="230" r="4" fill="#F2F2F2"/>
<circle cx="451" cy="230" r="4" fill="#F2F2F2"/>
<g clip-path="url(#clip22_0_1)">
<rect x="663" y="348" width="70" height="194" rx="8" fill="white"/>
<g clip-path="url(#clip23_0_1)">
<rect x="681" y="366" width="34" height="26" rx="4" fill="#DDE3E9"/>
<rect x="681" y="400" width="34" height="25" rx="4" fill="#AFB9C5"/>
<rect x="681" y="433" width="34" height="25" rx="4" fill="#DDE3E9"/>
<rect x="681" y="499" width="34" height="25" rx="4" fill="#DDE3E9"/>
<rect x="681" y="466" width="34" height="25" rx="4" fill="#C5CFD6"/>
</g>
</g>
<g clip-path="url(#clip24_0_1)">
<g clip-path="url(#clip25_0_1)">
<rect x="430" y="260" width="225" height="47" rx="4" fill="white"/>
<g clip-path="url(#clip26_0_1)">
<rect x="439" y="274.1" width="167" height="7.05" rx="3" fill="#DDE3E9"/>
<rect x="439" y="285.85" width="112.096" height="7.05" rx="3" fill="#DDE3E9"/>
</g>
<circle cx="630.954" cy="283.5" r="7" fill="#DDE3E9"/>
<circle cx="630.954" cy="283.5" r="3" fill="#F2F2F2"/>
</g>
<g clip-path="url(#clip27_0_1)">
<rect x="430" y="315" width="225" height="39" rx="4" fill="white"/>
<g clip-path="url(#clip28_0_1)">
<rect x="439" y="326.7" width="167" height="5.85" rx="2.925" fill="#DDE3E9"/>
<rect x="439" y="336.45" width="112.096" height="5.85" rx="2.925" fill="#DDE3E9"/>
</g>
<circle cx="630.954" cy="334.5" r="7" fill="#DDE3E9"/>
<circle cx="630.954" cy="334.5" r="3" fill="#F2F2F2"/>
</g>
<g clip-path="url(#clip29_0_1)">
<rect x="430" y="362" width="225" height="39" rx="4" fill="white"/>
<g clip-path="url(#clip30_0_1)">
<rect x="439" y="373.7" width="167" height="5.85" rx="2.925" fill="#DDE3E9"/>
<rect x="439" y="383.45" width="112.096" height="5.85" rx="2.925" fill="#DDE3E9"/>
</g>
<circle cx="630.954" cy="381.5" r="7" fill="#DDE3E9"/>
<circle cx="630.954" cy="381.5" r="3" fill="#AFB9C5"/>
</g>
<g clip-path="url(#clip31_0_1)">
<rect x="430" y="503" width="225" height="39" rx="4" fill="white"/>
<g clip-path="url(#clip32_0_1)">
<rect x="439" y="514.7" width="167" height="5.85" rx="2.925" fill="#DDE3E9"/>
<rect x="439" y="524.45" width="112.096" height="5.85" rx="2.925" fill="#DDE3E9"/>
</g>
<circle cx="630.954" cy="522.5" r="7" fill="#DDE3E9"/>
<circle cx="630.954" cy="522.5" r="3" fill="#F2F2F2"/>
</g>
<g clip-path="url(#clip33_0_1)">
<rect x="430" y="456" width="225" height="39" rx="4" fill="white"/>
<g clip-path="url(#clip34_0_1)">
<rect x="439" y="467.7" width="167" height="5.85" rx="2.925" fill="#DDE3E9"/>
<rect x="439" y="477.45" width="112.096" height="5.85" rx="2.925" fill="#DDE3E9"/>
</g>
<circle cx="630.954" cy="475.5" r="7" fill="#DDE3E9"/>
<circle cx="630.954" cy="475.5" r="3" fill="#F2F2F2"/>
</g>
<g clip-path="url(#clip35_0_1)">
<rect x="430" y="409" width="225" height="39" rx="4" fill="white"/>
<g clip-path="url(#clip36_0_1)">
<rect x="439" y="420.7" width="167" height="5.85" rx="2.925" fill="#DDE3E9"/>
<rect x="439" y="430.45" width="112.096" height="5.85" rx="2.925" fill="#DDE3E9"/>
</g>
<circle cx="630.954" cy="428.5" r="7" fill="#DDE3E9"/>
<circle cx="630.954" cy="428.5" r="3" fill="#F2F2F2"/>
</g>
</g>
</g>
<path fill-rule="evenodd" clip-rule="evenodd" d="M831.986 386.376C828.041 383.701 822.796 383 818.076 383C799.64 383 782.311 389.84 767.341 400.032C759.138 405.616 751.8 412.728 745.322 420.132C741.582 424.407 738.248 429.03 735.887 434.173C734.294 437.644 733.201 441.261 732.46 444.991C731.557 449.537 730.839 454.175 730.515 458.797C730.387 460.617 729.33 470.274 732.356 470.438C732.338 470.676 732.334 470.903 732.353 471.106C725.782 481.38 721.723 493.42 717.958 504.835C714.683 514.769 711.764 524.786 709.87 535.063C707.375 548.592 705.737 562.326 704.958 576.05C704.791 578.999 704.676 581.95 704.577 584.903C704.493 587.422 704.408 589.941 704.325 592.461C704.233 595.284 703.736 598.534 704.185 601.34C704.576 603.784 706.691 603.414 706.785 600.982C706.898 598.045 706.879 595.102 707.008 592.163C707.179 588.262 707.355 584.361 707.546 580.461C708.875 553.369 713.86 526.675 723.061 501.084C726.785 490.728 731.051 480.925 736.535 471.345C741.356 462.922 747.156 454.767 753.084 447.173C758.845 439.792 764.836 432.583 771.895 426.33C777.624 421.256 783.926 416.835 790.404 412.722C798.631 407.498 806.843 402.401 815.755 398.391C820.388 396.307 825.108 394.441 829.777 392.44C830.617 392.081 831.517 391.732 832.325 391.315C835.02 389.925 834.133 387.832 831.986 386.376" fill="#C1DEE2"/>
<path fill-rule="evenodd" clip-rule="evenodd" d="M757.818 481C765.295 481 771.949 481.972 778.838 484.943C784.785 487.508 790.205 490.903 795.467 494.599C802.868 499.798 808.698 505.848 812.779 513.865C815.217 518.654 817.006 525.431 815.368 530.655C813.44 536.807 808.144 541.939 801.169 540.855C796.856 540.185 792.903 537.33 789.625 534.643C785.703 531.428 782.564 527.563 779.972 523.27C775.744 516.267 773.26 508.351 769.668 501.033C767.964 497.56 766.317 494.063 764.275 490.762C763.265 489.128 762.189 487.509 760.656 486.294C759.836 485.644 756.378 484.52 757.7 483.061C738.31 483.315 721.132 498.207 717.409 516.641C717.063 518.359 716.792 520.091 716.505 521.82C716.325 522.911 716.398 526.937 715.422 527.634C713.27 529.172 714.174 524.499 714.267 523.826C714.506 522.087 714.76 520.35 715.027 518.615C716.481 509.181 720.681 500.411 727.685 493.683C735.694 485.99 746.501 481 757.818 481" fill="#89C5CC"/>
<path fill-rule="evenodd" clip-rule="evenodd" d="M74.9379 545.736C93.6043 577.052 115.345 607.374 128.401 641.613C127.875 637.577 127.317 633.545 126.692 629.52C123.38 608.179 119.262 586.994 114.936 565.835C112.733 555.062 110.402 544.327 108.012 533.594C106.727 527.829 105.457 522.061 104.145 516.302C103.827 514.906 103.554 512.469 103.157 510C115.845 551.637 128.081 593.305 137.031 635.942C138.205 641.538 139.205 647.124 140.024 652.7C140.304 651.428 140.58 650.156 140.881 648.887C144.503 633.68 149.935 618.594 156.403 604.374C159.495 597.575 163.046 590.924 167.228 584.726C169.836 580.863 175.986 576.271 178.364 572.314C165.355 596.176 160.657 626.032 153.145 651.973C151.312 658.304 149.467 664.624 147.659 670.955C158.987 648.237 176.563 629.571 201 621.483C171.42 641.027 153.678 675.254 141.722 710.26C141.683 710.675 141.636 711.09 141.595 711.506C145.114 704.829 149.545 698.789 155.551 694.56C168.407 685.504 182.667 688.142 195.137 695.91C185.35 689.689 167.663 695.354 159.428 701.677C153.533 706.203 148.495 712.275 144.12 718.2C143.072 719.62 141.641 721.277 140.13 723.044C138.012 736.795 134.56 750.452 129.672 764C130.479 760.111 129.896 753.892 130.12 750.993C130.144 750.679 130.164 750.365 130.188 750.053C129.445 753.019 128.727 755.951 128.036 758.837C129.41 753.331 130.156 747.583 130.739 741.776C130.889 739.281 131.036 736.785 131.19 734.29C131.141 729.553 130.946 724.799 130.616 720.036C129.447 715.408 128.137 711.042 127.056 707.411C123.159 694.31 117.444 681.76 110.411 670.051C103.994 659.366 96.3124 649.688 87.4448 640.935C82.6643 636.217 77.6614 631.725 72.7289 627.17C70.9453 625.523 67.7572 621.474 65 619.363C85.0805 630.434 105.749 642.41 120.398 660.248C118.68 653.653 116.815 647.151 114.842 640.78C104.831 608.454 92.1913 574.953 74.9379 545.736Z" fill="#DDE3E9"/>
<ellipse cx="136" cy="755.5" rx="41" ry="32.5" fill="#C5CFD6"/>
<rect x="664" y="173" width="6" height="25" rx="3" fill="#DDE3E9"/>
<rect x="678" y="157" width="6" height="41" rx="3" fill="#DDE3E9"/>
<rect x="692" y="149" width="6" height="49" rx="3" fill="#DDE3E9"/>
<rect x="706" y="157" width="6" height="41" rx="3" fill="#DDE3E9"/>
<rect x="720" y="141" width="6" height="57" rx="3" fill="#C5CFD6"/>
<path fill-rule="evenodd" clip-rule="evenodd" d="M172 447.256C172 436.117 181.002 427 192 427V447.256L178.332 462C174.444 458.395 172 453.107 172 447.256Z" fill="#F2F2F2"/>
<path fill-rule="evenodd" clip-rule="evenodd" d="M191.471 447H211.668C211.668 452.221 209.538 457.113 206.171 460.668C202.468 464.556 197.195 467 191.471 467C186.198 467 181.372 464.891 177.668 461.557L191.471 447Z" fill="#AFB9C5"/>
<path fill-rule="evenodd" clip-rule="evenodd" d="M212 447C212 436.002 202.998 427 192 427V447H212ZM182 427L190 445L172 437C173.78 432.334 177.777 428.78 182 427Z" fill="#C5CFD6"/>
<path fill-rule="evenodd" clip-rule="evenodd" d="M822.766 456.179C820.845 458.219 818.123 459.5 815.095 459.5C809.278 459.5 804.562 454.799 804.562 449C804.562 443.201 809.278 438.5 815.095 438.5V419C798.546 419 785 432.503 785 449C785 465.497 798.546 479 815.095 479C823.788 479 831.645 475.334 837 469.502L822.766 456.179Z" fill="#F2F2F2"/>
<path fill-rule="evenodd" clip-rule="evenodd" d="M815 419V438.5C820.799 438.5 825.5 443.201 825.5 449H845C845 432.503 831.497 419 815 419Z" fill="#AFB9C5"/>
<path fill-rule="evenodd" clip-rule="evenodd" d="M825.097 449C825.097 452.407 823.492 455.435 821 457.391L833.262 473C840.399 467.412 845 458.749 845 449H825.097Z" fill="#C5CFD6"/>
<path fill-rule="evenodd" clip-rule="evenodd" d="M632.051 180.504C630.573 182.068 628.479 183.05 626.15 183.05C621.675 183.05 618.048 179.446 618.048 175C618.048 170.554 621.675 166.95 626.15 166.95V152C613.42 152 603 162.352 603 175C603 187.648 613.42 198 626.15 198C632.837 198 638.88 195.189 643 190.718L632.051 180.504Z" fill="#F2F2F2"/>
<path fill-rule="evenodd" clip-rule="evenodd" d="M626 152V166.95C630.446 166.95 634.05 170.554 634.05 175H649C649 162.352 638.648 152 626 152Z" fill="#AFB9C5"/>
<path fill-rule="evenodd" clip-rule="evenodd" d="M634.073 175C634.073 177.555 632.869 179.827 631 181.293L640.196 193C645.55 188.809 649 182.312 649 175H634.073Z" fill="#C5CFD6"/>
<path fill-rule="evenodd" clip-rule="evenodd" d="M268.007 197.986C268.003 197.996 267.999 198.006 267.993 198.018C267.999 198.008 268.007 197.968 268.007 197.986" fill="#C5CFD6"/>
<path fill-rule="evenodd" clip-rule="evenodd" d="M267.998 198.001C267.998 198.003 267.996 198.007 267.996 198.011C267.996 198.001 268.014 197.971 267.998 198.001" fill="#C5CFD6"/>
<path fill-rule="evenodd" clip-rule="evenodd" d="M268.067 197.832C268.053 197.872 268.035 197.91 268.019 197.95C268.027 197.93 268.035 197.914 268.043 197.894C267.835 198.414 267.967 198.076 268.067 197.832" fill="#C5CFD6"/>
<path fill-rule="evenodd" clip-rule="evenodd" d="M268.022 197.953C268.014 197.971 268.006 197.991 267.998 198.009C267.94 198.121 268.022 197.953 268.022 197.953" fill="#C5CFD6"/>
<path fill-rule="evenodd" clip-rule="evenodd" d="M267.999 198.002C267.999 198 267.999 198 268.001 197.998C267.999 198 267.999 198 267.999 198.002" fill="#C5CFD6"/>
<path fill-rule="evenodd" clip-rule="evenodd" d="M267.99 198.016C267.978 198.04 268.046 197.924 267.99 198.016Z" fill="#C5CFD6"/>
<path fill-rule="evenodd" clip-rule="evenodd" d="M267.998 198.002L268.002 197.998C268 198 268 198.002 267.998 198.002" fill="#C5CFD6"/>
<rect x="220" y="146" width="95" height="63" rx="4" fill="#DDE3E9"/>
<path fill-rule="evenodd" clip-rule="evenodd" d="M256 164L228 209H284L256 164Z" fill="#AFB9C5"/>
<path fill-rule="evenodd" clip-rule="evenodd" d="M283.5 176L259 209H308L283.5 176Z" fill="#C5CFD6"/>
<circle cx="294" cy="167" r="9" fill="white"/>
<path fill-rule="evenodd" clip-rule="evenodd" d="M744.993 624.986C744.997 624.996 745.001 625.006 745.007 625.018C745.001 625.008 744.993 624.968 744.993 624.986" fill="#C5CFD6"/>
<path fill-rule="evenodd" clip-rule="evenodd" d="M745.002 625.001C745.002 625.003 745.004 625.007 745.004 625.011C745.004 625.001 744.986 624.971 745.002 625.001" fill="#C5CFD6"/>
<path fill-rule="evenodd" clip-rule="evenodd" d="M744.933 624.832C744.947 624.872 744.965 624.91 744.981 624.95C744.973 624.93 744.965 624.914 744.957 624.894C745.165 625.414 745.033 625.076 744.933 624.832" fill="#C5CFD6"/>
<path fill-rule="evenodd" clip-rule="evenodd" d="M744.978 624.953C744.986 624.971 744.994 624.991 745.002 625.009C745.06 625.121 744.978 624.953 744.978 624.953" fill="#C5CFD6"/>
<path fill-rule="evenodd" clip-rule="evenodd" d="M745.001 625.002C745.001 625 745.001 625 744.999 624.998C745.001 625 745.001 625 745.001 625.002" fill="#C5CFD6"/>
<path fill-rule="evenodd" clip-rule="evenodd" d="M745.01 625.016C745.022 625.04 744.954 624.924 745.01 625.016Z" fill="#C5CFD6"/>
<path fill-rule="evenodd" clip-rule="evenodd" d="M745.002 625.002L744.998 624.998C745 625 745 625.002 745.002 625.002" fill="#C5CFD6"/>
<rect width="142" height="94" rx="4" transform="matrix(-1 0 0 1 816 548)" fill="#DDE3E9"/>
<path fill-rule="evenodd" clip-rule="evenodd" d="M763.274 575L804.329 642H722.219L763.274 575Z" fill="#AFB9C5"/>
<path fill-rule="evenodd" clip-rule="evenodd" d="M720.944 592.946L757.239 642H684.649L720.944 592.946Z" fill="#C5CFD6"/>
<circle r="13.5" transform="matrix(-1 0 0 1 705.5 579.5)" fill="white"/>
<path fill-rule="evenodd" clip-rule="evenodd" d="M311.167 304.429C318.442 308.809 325.589 310.925 328.944 310.061C337.357 307.895 338.13 277.152 331.621 265.033C325.111 252.913 291.647 247.631 289.96 271.643C289.375 279.978 292.878 287.415 298.054 293.484L288.773 336.695H315.733L311.167 304.429Z" fill="#B28B67"/>
<path fill-rule="evenodd" clip-rule="evenodd" d="M312.515 274.296C314.847 270.827 317.086 268.182 319.998 266.645C331.851 266.832 333.238 264.71 333.238 257.557C331.324 256.188 324.569 253.884 317.005 253.236C313.146 252.133 308.575 252.341 304.171 254.181C298.735 255.721 294.132 259.039 292.099 265.251C284.743 277.931 290.326 291.131 297.85 295.64C299.853 293.27 301.601 290.973 303.16 288.774C301.908 287.551 301.13 285.845 301.13 283.958C301.13 280.24 304.148 277.225 307.87 277.225C308.144 277.225 308.413 277.242 308.679 277.273C308.846 281.922 309.535 297.65 311.346 303.113C313.481 309.554 325.937 311.135 330.282 311.135C334.034 311.135 333.906 307.586 333.815 305.042C333.801 304.676 333.789 304.33 333.789 304.019C333.789 303.37 332.943 303.371 331.987 303.373C330.745 303.376 329.319 303.379 329.319 301.956C329.319 300.405 331.464 299.215 333.384 298.151C334.582 297.487 335.692 296.871 336.139 296.247C337.547 294.278 338.021 291.623 335.897 291.623C334.735 291.623 333.142 292.291 331.225 293.096C328.332 294.31 324.7 295.835 320.705 295.835C314.104 295.835 312.535 274.562 312.515 274.296Z" fill="#191847"/>
<path fill-rule="evenodd" clip-rule="evenodd" d="M279.787 429.826L320.513 572.583L350.227 677.803H371.9L340.324 429.826H279.787Z" fill="#191847"/>
<path fill-rule="evenodd" clip-rule="evenodd" d="M268.895 429.826C267.953 503.405 264.741 543.537 263.752 550.221C262.763 556.906 247.808 599.433 218.887 677.803H241.338C278.157 602.621 298.71 560.094 302.998 550.221C307.285 540.349 320.517 500.217 340.447 429.826H268.895Z" fill="#2F3676"/>
<path fill-rule="evenodd" clip-rule="evenodd" d="M216.88 698L218.003 674.437L241.593 674.437C258.372 686.218 285.403 693.512 285.403 693.512V698H242.717L228.113 695.756V698H216.88Z" fill="#191847"/>
<path fill-rule="evenodd" clip-rule="evenodd" d="M347.187 698L348.31 674.437L371.9 674.437C388.679 686.218 415.71 693.512 415.71 693.512V698H373.023L358.42 695.756V698H347.187Z" fill="#191847"/>
<path fill-rule="evenodd" clip-rule="evenodd" d="M192.576 470.539C196.765 464.391 220.999 399.01 220.999 399.01L240.896 401.896C240.896 401.896 208.86 471.323 206.547 475.33C203.541 480.535 206.2 489.084 208.002 494.881C208.281 495.778 208.54 496.609 208.753 497.352C204.967 498.444 203.526 496.279 202.007 493.996C200.292 491.418 198.477 488.69 193.069 490.337C190.979 490.973 188.972 491.79 187.011 492.588C180.237 495.345 174.013 497.878 166.865 491.955C165.732 491.016 164.777 487.946 168.379 486.157C177.353 481.7 190.528 473.545 192.576 470.539ZM408.459 440.151L374.55 411.436L365.282 430.395L399.653 447.529C408.841 459.974 414.096 465.262 415.418 463.392C416.532 461.815 415.859 460.219 415.239 458.749C414.756 457.604 414.306 456.535 414.757 455.612C415.789 453.502 422.497 454.2 428.835 455.135C435.173 456.069 433.514 453.107 432.076 451.602C425.843 447.258 417.971 443.441 408.459 440.151Z" fill="#B28B67"/>
<path fill-rule="evenodd" clip-rule="evenodd" d="M304.157 317.992L316.486 313.92C333.21 355.65 358.151 396.026 399.823 430.129L389.518 447.888C352.894 426.339 318.225 409.599 304.157 377.263C299.436 366.41 303.772 330.969 304.157 317.992Z" fill="#C5CFD6"/>
<path fill-rule="evenodd" clip-rule="evenodd" d="M261.813 435.436C261.813 435.436 314.787 441.047 345.206 435.436C347.718 434.973 348.114 430.771 346.949 427.92C328.805 383.512 316.363 344.764 316.363 313.92C311.369 316.434 298.883 314.673 298.883 314.673C276.514 346.46 266.231 382.931 261.813 435.436Z" fill="#323337"/>
<path fill-rule="evenodd" clip-rule="evenodd" d="M292.473 312.009C293.05 311.621 293.355 311.427 293.355 311.427L293.322 312.009H302.645C303.113 314.761 303.799 324.961 304.8 339.834C308.436 393.881 316.223 509.635 332.797 553.933H218.436C220.849 503.57 239.438 443.343 258.695 392.204C244.485 406.325 227.89 429.998 214.478 469.404L193.057 463.912C214.887 369.951 278.845 321.493 291.255 312.844C291.377 312.564 291.497 312.286 291.617 312.009H292.473Z" fill="#DDE3E9"/>
<path fill-rule="evenodd" clip-rule="evenodd" d="M809.561 331.479C801.445 336.363 793.47 338.722 789.727 337.759C780.34 335.344 779.477 301.064 786.74 287.55C794.003 274.036 831.34 268.146 833.222 294.922C833.875 304.215 829.966 312.508 824.191 319.275L834.547 367.458H804.467L809.561 331.479Z" fill="#B28B67"/>
<path fill-rule="evenodd" clip-rule="evenodd" d="M823.267 288.634C805.909 288.758 793.832 288.028 786.92 286.131C787.235 280.259 793.351 273.62 809.48 273.62C827.425 273.62 837.053 284.061 837.053 296.141C837.053 307.177 829.937 320.617 824.52 321.164C823.118 320.858 821.921 319.174 820.73 316.852C822.959 315.798 824.52 313.364 824.52 310.529C824.52 306.729 821.714 303.648 818.253 303.648C816.996 303.648 815.826 304.054 814.845 304.754C812.569 301.087 809.716 298.345 805.72 298.643L808.227 291.136L823.267 289.885V288.634Z" fill="#191847"/>
<ellipse rx="96.5067" ry="91.9613" transform="matrix(-1 0 0 1 847.08 597.048)" fill="#C5CFD6"/>
<path fill-rule="evenodd" clip-rule="evenodd" d="M697.042 592.144C692.381 608.444 680.767 639.34 664.708 674.821L649.449 670.376C662.799 588.731 673.909 534.678 680.274 518.226C684.478 507.357 716.29 508.63 712.631 530.502C711.096 539.673 705.024 564.233 697.042 592.144ZM759.764 534.316C784.649 539.463 836.246 557.657 850.98 563.471C860.24 567.125 854.27 579.517 846.371 578.432C845.033 578.249 840.3 577.72 833.238 576.932C810.556 574.398 763.844 569.182 728.416 564.092C709.762 561.411 719.797 526.529 739.165 530.221C745.682 531.463 752.613 532.837 759.764 534.316Z" fill="#B28B67"/>
<path fill-rule="evenodd" clip-rule="evenodd" d="M679.298 509.013C681.842 500.725 797.495 471.305 797.495 471.305H806.973V480.122L727.278 520.622C727.383 521.929 727.319 523.31 727.062 524.767C727.637 554.791 714.765 577.22 702.021 599.427C693.686 613.95 685.407 628.376 680.979 644.77L651.699 640.409C652.552 638.231 653.9 628.413 655.744 614.988C660.394 581.14 668.193 524.366 679.133 509.345C679.172 509.292 679.21 509.24 679.25 509.189C679.264 509.13 679.28 509.071 679.298 509.013Z" fill="#1F28CF"/>
<path fill-rule="evenodd" clip-rule="evenodd" d="M800.352 544.675C807.644 543.217 814.359 541.917 820.105 540.911C857.22 534.412 868.044 514.579 861.644 471.305H793.26C782.089 474.509 724.035 498.812 693.914 511.739C673.979 520.294 680.263 551.136 691.553 559.162C691.614 559.654 691.817 559.989 692.179 560.139C734.981 577.848 771.481 576.527 794.92 575.678C804.737 575.323 812.262 575.05 817 576.294L824.423 552.917L800.352 544.675Z" fill="#2B44FF"/>
<path fill-rule="evenodd" clip-rule="evenodd" d="M843.179 561.715C843.214 560.545 844.201 559.608 845.367 559.723C848.008 559.985 852.368 560.548 854.416 561.545C857.463 563.029 862.814 566.888 862.814 566.888C861.09 570.417 831.825 630.315 831.825 630.315C831.825 630.315 822.43 628.801 824.379 623.156C826.329 617.512 827.524 613.732 827.524 613.732L828.771 577.584C828.791 577.021 829.272 576.585 829.835 576.62L835.624 576.984C835.624 576.984 840.338 573.175 841.844 570.092C842.831 568.071 843.107 564.166 843.179 561.715Z" fill="#E4E4E4"/>
<path fill-rule="evenodd" clip-rule="evenodd" d="M669.047 666.62C670.113 666.139 671.385 666.613 671.792 667.71C672.714 670.194 674.12 674.355 674.12 676.63C674.12 680.014 672.99 686.507 672.99 686.507C669.057 686.507 602.3 686.507 602.3 686.507C602.3 686.507 599.545 677.413 605.481 676.688C611.418 675.963 615.345 675.379 615.345 675.379L648.44 660.65C648.954 660.421 649.556 660.662 649.771 661.182L651.982 666.537C651.982 666.537 657.478 669.097 660.914 669.097C663.168 669.097 666.808 667.629 669.047 666.62Z" fill="#E4E4E4"/>
<path fill-rule="evenodd" clip-rule="evenodd" d="M947.308 512.846C942.399 506.157 912.84 434.237 912.84 434.237L890.77 438.229C890.77 438.229 929.183 514.355 931.919 518.73C935.472 524.414 932.84 534.046 931.055 540.577C930.779 541.587 930.523 542.523 930.314 543.359C934.578 544.429 936.1 541.96 937.705 539.357C939.517 536.417 941.435 533.306 947.528 534.929C949.882 535.557 952.152 536.389 954.369 537.202C962.029 540.011 969.066 542.591 976.805 535.711C978.032 534.621 978.977 531.161 974.892 529.308C964.714 524.691 949.708 516.116 947.308 512.846ZM691.933 475.755L731.913 446.439L740.747 468.25L701.159 484.646C689.961 497.779 683.7 503.254 682.375 501.07C681.258 499.23 682.132 497.507 682.936 495.919C683.563 494.683 684.148 493.529 683.718 492.466C682.735 490.039 675.214 490.295 668.088 490.844C660.961 491.392 663.038 488.225 664.757 486.661C672.032 482.313 681.091 478.677 691.933 475.755Z" fill="#B28B67"/>
<path fill-rule="evenodd" clip-rule="evenodd" d="M804.136 342.486L817.54 347.974C817.399 351.469 817.413 356.441 817.429 362.137C817.479 380.014 817.549 405.026 812.922 413.903C796.893 444.657 763.98 460.676 727.323 478.518C722.409 480.91 717.428 483.334 712.412 485.831L702.326 465.277C703.494 464.45 704.652 463.619 705.8 462.783C704.216 462.228 702.894 460.977 702.317 459.265C701.322 456.318 702.909 453.125 705.861 452.132C711.859 450.114 717.455 449.264 722.598 449.632C760.163 418.034 785.45 381.043 804.136 342.486Z" fill="#69A1AC"/>
<path fill-rule="evenodd" clip-rule="evenodd" d="M864.627 482.453C864.627 482.453 805.523 488.935 771.584 482.453C768.781 481.917 768.904 469.854 770.204 466.56C790.448 415.255 803.764 377.697 803.764 342.062C809.336 344.968 823.267 342.933 823.267 342.933C848.225 379.656 859.698 421.792 864.627 482.453Z" fill="#191847"/>
<path fill-rule="evenodd" clip-rule="evenodd" d="M939.586 483.073C904.757 383.698 833.324 339.932 833.324 339.932H831.374H826.554H819.07C820.685 361.246 813.099 392.264 804.298 428.245C790.224 485.79 773.044 556.033 785.428 619.592C800.655 622.986 818.546 620.669 837.915 618.16H837.916C865.87 614.539 896.902 610.519 927.44 622.697C926.263 597.236 911.372 569.051 896.547 540.994C887.229 523.357 877.936 505.77 872.094 488.941C873.414 487.957 874.144 486.282 873.838 484.55L872.791 478.626C872.387 476.339 870.322 474.761 868.055 474.917C867.654 473.11 867.307 471.315 867.019 469.533C865.488 460.075 866.465 450.729 867.431 441.488C867.962 436.415 868.489 431.373 868.596 426.361C885.382 441.29 905.701 467.317 922.847 512.432L946.518 505.479C945.613 502.122 944.665 498.82 943.676 495.573C946.416 494.065 949.646 486.907 947.339 485.714C944.9 484.453 942.313 483.575 939.586 483.073Z" fill="#89C5CC"/>
<path fill-rule="evenodd" clip-rule="evenodd" d="M828.148 341.183L834.614 361.034L821.592 375.914L833.36 387.609L804.89 436.272L839.706 387.706L828.148 375.914L839.706 362.764L828.148 341.183Z" fill="black" fill-opacity="0.1"/>
<path fill-rule="evenodd" clip-rule="evenodd" d="M808.227 450.035C808.227 452.799 810.471 455.04 813.24 455.04C816.009 455.04 818.253 452.799 818.253 450.035C818.253 447.271 816.009 445.031 813.24 445.031C810.471 445.031 808.227 447.271 808.227 450.035ZM801.96 478.812C801.96 481.576 804.205 483.817 806.973 483.817C809.742 483.817 811.987 481.576 811.987 478.812C811.987 476.048 809.742 473.808 806.973 473.808C804.205 473.808 801.96 476.048 801.96 478.812ZM805.72 512.594C802.951 512.594 800.707 510.353 800.707 507.589C800.707 504.825 802.951 502.585 805.72 502.585C808.489 502.585 810.733 504.825 810.733 507.589C810.733 510.353 808.489 512.594 805.72 512.594Z" fill="black" fill-opacity="0.4"/>
<defs>
<clipPath id="clip0_0_1">
<rect width="918.749" height="294.909" fill="white" transform="translate(54.1257 451.185)"/>
</clipPath>
<clipPath id="clip1_0_1">
<rect width="159" height="302" fill="white" transform="translate(282 165)"/>
</clipPath>
<clipPath id="clip2_0_1">
<rect width="131" height="204" fill="white" transform="translate(296 193)"/>
</clipPath>
<clipPath id="clip3_0_1">
<rect width="131" height="54" fill="white" transform="translate(296 193)"/>
</clipPath>
<clipPath id="clip4_0_1">
<rect width="73" height="21.6" fill="white" transform="translate(335 209.2)"/>
</clipPath>
<clipPath id="clip5_0_1">
<rect width="131" height="42" fill="white" transform="translate(296 255)"/>
</clipPath>
<clipPath id="clip6_0_1">
<rect width="73" height="16.8" fill="white" transform="translate(335 267.6)"/>
</clipPath>
<clipPath id="clip7_0_1">
<rect width="131" height="42" fill="white" transform="translate(296 305)"/>
</clipPath>
<clipPath id="clip8_0_1">
<rect width="73" height="16.8" fill="white" transform="translate(335 317.6)"/>
</clipPath>
<clipPath id="clip9_0_1">
<rect width="131" height="42" fill="white" transform="translate(296 355)"/>
</clipPath>
<clipPath id="clip10_0_1">
<rect width="73" height="16.8" fill="white" transform="translate(335 367.6)"/>
</clipPath>
<clipPath id="clip11_0_1">
<rect width="207" height="302" fill="white" transform="translate(300 191)"/>
</clipPath>
<clipPath id="clip12_0_1">
<rect width="131" height="204" fill="white" transform="translate(362 219)"/>
</clipPath>
<clipPath id="clip13_0_1">
<rect width="131" height="54" fill="white" transform="translate(362 219)"/>
</clipPath>
<clipPath id="clip14_0_1">
<rect width="73" height="21.6" fill="white" transform="translate(371 235.2)"/>
</clipPath>
<clipPath id="clip15_0_1">
<rect width="131" height="42" fill="white" transform="translate(362 281)"/>
</clipPath>
<clipPath id="clip16_0_1">
<rect width="73" height="16.8" fill="white" transform="translate(401 293.6)"/>
</clipPath>
<clipPath id="clip17_0_1">
<rect width="131" height="42" fill="white" transform="translate(362 331)"/>
</clipPath>
<clipPath id="clip18_0_1">
<rect width="73" height="16.8" fill="white" transform="translate(371 343.6)"/>
</clipPath>
<clipPath id="clip19_0_1">
<rect width="131" height="42" fill="white" transform="translate(362 381)"/>
</clipPath>
<clipPath id="clip20_0_1">
<rect width="73" height="16.8" fill="white" transform="translate(401 393.6)"/>
</clipPath>
<clipPath id="clip21_0_1">
<rect width="335" height="346" fill="white" transform="translate(414 216)"/>
</clipPath>
<clipPath id="clip22_0_1">
<rect width="70" height="194" fill="white" transform="translate(663 348)"/>
</clipPath>
<clipPath id="clip23_0_1">
<rect width="34" height="158" fill="white" transform="translate(681 366)"/>
</clipPath>
<clipPath id="clip24_0_1">
<rect width="225" height="282" fill="white" transform="translate(430 260)"/>
</clipPath>
<clipPath id="clip25_0_1">
<rect width="225" height="47" fill="white" transform="translate(430 260)"/>
</clipPath>
<clipPath id="clip26_0_1">
<rect width="167" height="18.8" fill="white" transform="translate(439 274.1)"/>
</clipPath>
<clipPath id="clip27_0_1">
<rect width="225" height="39" fill="white" transform="translate(430 315)"/>
</clipPath>
<clipPath id="clip28_0_1">
<rect width="167" height="15.6" fill="white" transform="translate(439 326.7)"/>
</clipPath>
<clipPath id="clip29_0_1">
<rect width="225" height="39" fill="white" transform="translate(430 362)"/>
</clipPath>
<clipPath id="clip30_0_1">
<rect width="167" height="15.6" fill="white" transform="translate(439 373.7)"/>
</clipPath>
<clipPath id="clip31_0_1">
<rect width="225" height="39" fill="white" transform="translate(430 503)"/>
</clipPath>
<clipPath id="clip32_0_1">
<rect width="167" height="15.6" fill="white" transform="translate(439 514.7)"/>
</clipPath>
<clipPath id="clip33_0_1">
<rect width="225" height="39" fill="white" transform="translate(430 456)"/>
</clipPath>
<clipPath id="clip34_0_1">
<rect width="167" height="15.6" fill="white" transform="translate(439 467.7)"/>
</clipPath>
<clipPath id="clip35_0_1">
<rect width="225" height="39" fill="white" transform="translate(430 409)"/>
</clipPath>
<clipPath id="clip36_0_1">
<rect width="167" height="15.6" fill="white" transform="translate(439 420.7)"/>
</clipPath>
</defs>
</svg>
